<svg width="132" height="134" viewBox="0 0 132 134" fill="none" xmlns="http://www.w3.org/2000/svg">
<path d="M66 0L71.8172 34.009L88.9153 4.0406L82.75 37.9881L109.067 15.675L91.6625 45.4666L124.024 33.5L97.4797 55.5424L131.982 55.3656L99.5 67L131.982 78.6344L97.4797 78.4576L124.024 100.5L91.6625 88.5334L109.067 118.325L82.75 96.0119L88.9153 129.959L71.8172 99.991L66 134L60.1828 99.991L43.0847 129.959L49.25 96.0119L22.9333 118.325L40.3375 88.5334L7.9763 100.5L34.5203 78.4576L0.0178833 78.6344L32.5 67L0.0178833 55.3656L34.5203 55.5424L7.9763 33.5L40.3375 45.4666L22.9333 15.675L49.25 37.9881L43.0847 4.0406L60.1828 34.009L66 0Z" fill="#ECE8D9"/>
</svg>
