<svg width="257" height="234" viewBox="0 0 257 234" fill="none" xmlns="http://www.w3.org/2000/svg">
<path d="M128.371 -23L134.821 33.8297L151.316 -20.935L147.515 36.1332L173.523 -14.806L159.593 40.6663L194.279 -4.811L170.668 47.2831L212.916 8.7303L180.383 55.7711L228.836 25.3816L188.427 65.8575L241.528 44.6079L194.54 77.2179L250.582 65.7913L198.527 89.4874L255.708 88.251L200.259 102.272L256.742 111.265L199.68 115.159L253.649 134.094L196.809 127.737L246.53 156.004L191.739 139.6L235.614 176.29L184.632 150.366L221.25 194.301L175.716 159.691L203.901 209.459L165.279 167.274L184.125 221.275L153.656 172.871L162.557 229.369L141.22 176.304L139.89 233.483L128.371 177.46L116.852 233.483L115.522 176.304L94.1849 229.369L103.086 172.871L72.6165 221.275L91.4624 167.274L52.8402 209.459L81.0253 159.691L35.4915 194.301L72.11 150.366L21.1279 176.29L65.0029 139.6L10.2113 156.004L59.9326 127.737L3.09237 134.094L57.0619 115.159L0 111.265L56.4831 102.272L1.03357 88.251L58.2148 89.4874L6.15984 65.7913L62.2014 77.2179L15.2141 44.6079L68.3147 65.8575L27.9053 25.3816L76.3583 55.7711L43.8255 8.7303L86.0736 47.2831L62.463 -4.811L97.1483 40.6663L83.2189 -14.806L109.227 36.1332L105.426 -20.935L121.921 33.8297L128.371 -23Z" fill="#CBC7B5"/>
</svg>
